{
    "asset" : {
        "generator" : "Khronos glTF Blender I/O v1.6.16",
        "version" : "2.0"
    },
    "scene" : 0,
    "scenes" : [
        {
            "name" : "tv_monitor01.qc",
            "nodes" : [
                0
            ]
        }
    ],
    "nodes" : [
        {
            "mesh" : 0,
            "name" : "tv_monitor01_reference"
        }
    ],
    "materials" : [
        {
            "doubleSided" : true,
            "name" : "tv_monitor01",
            "pbrMetallicRoughness" : {
                "baseColorTexture" : {
                    "index" : 0
                },
                "metallicFactor" : 0,
                "roughnessFactor" : 0.5
            }
        },
        {
            "doubleSided" : true,
            "name" : "Material",
            "pbrMetallicRoughness" : {
                "metallicFactor" : 0,
                "roughnessFactor" : 0.5
            }
        }
    ],
    "meshes" : [
        {
            "name" : "tv_monitor01_reference",
            "primitives" : [
                {
                    "attributes" : {
                        "POSITION" : 0,
                        "NORMAL" : 1,
                        "TEXCOORD_0" : 2
                    },
                    "indices" : 3,
                    "material" : 0
                },
                {
                    "attributes" : {
                        "POSITION" : 4,
                        "NORMAL" : 5,
                        "TEXCOORD_0" : 6
                    },
                    "indices" : 7,
                    "material" : 1
                }
            ]
        }
    ],
    "textures" : [
        {
            "sampler" : 0,
            "source" : 0
        }
    ],
    "images" : [
        {
            "bufferView" : 4,
            "mimeType" : "image/png",
            "name" : "tv_monitor01"
        }
    ],
    "accessors" : [
        {
            "bufferView" : 0,
            "componentType" : 5126,
            "count" : 299,
            "max" : [
                11,
                8.00003719329834,
                7.000290870666504
            ],
            "min" : [
                -11,
                -8.000757217407227,
                -7.000013828277588
            ],
            "type" : "VEC3"
        },
        {
            "bufferView" : 1,
            "componentType" : 5126,
            "count" : 299,
            "type" : "VEC3"
        },
        {
            "bufferView" : 2,
            "componentType" : 5126,
            "count" : 299,
            "type" : "VEC2"
        },
        {
            "bufferView" : 3,
            "componentType" : 5123,
            "count" : 750,
            "type" : "SCALAR"
        },
        {
            "bufferView" : 5,
            "componentType" : 5126,
            "count" : 18,
            "max" : [
                5.351541042327881,
                5.820663928985596,
                5.595954895019531
            ],
            "min" : [
                -9.157840728759766,
                -4.454833984375,
                4.999996185302734
            ],
            "type" : "VEC3"
        },
        {
            "bufferView" : 6,
            "componentType" : 5126,
            "count" : 18,
            "type" : "VEC3"
        },
        {
            "bufferView" : 7,
            "componentType" : 5126,
            "count" : 18,
            "type" : "VEC2"
        },
        {
            "bufferView" : 8,
            "componentType" : 5123,
            "count" : 48,
            "type" : "SCALAR"
        }
    ],
    "bufferViews" : [
        {
            "buffer" : 0,
            "byteLength" : 3588,
            "byteOffset" : 0
        },
        {
            "buffer" : 0,
            "byteLength" : 3588,
            "byteOffset" : 3588
        },
        {
            "buffer" : 0,
            "byteLength" : 2392,
            "byteOffset" : 7176
        },
        {
            "buffer" : 0,
            "byteLength" : 1500,
            "byteOffset" : 9568
        },
        {
            "buffer" : 0,
            "byteLength" : 55272,
            "byteOffset" : 11068
        },
        {
            "buffer" : 0,
            "byteLength" : 216,
            "byteOffset" : 66340
        },
        {
            "buffer" : 0,
            "byteLength" : 216,
            "byteOffset" : 66556
        },
        {
            "buffer" : 0,
            "byteLength" : 144,
            "byteOffset" : 66772
        },
        {
            "buffer" : 0,
            "byteLength" : 96,
            "byteOffset" : 66916
        }
    ],
    "samplers" : [
        {
            "magFilter" : 9729,
            "minFilter" : 9987
        }
    ],
    "buffers" : [
        {
            "byteLength" : 67012,
            "uri" : "data:application/octet-stream;base64,"
        }
    ]
}
