{
    "asset" : {
        "generator" : "Khronos glTF Blender I/O v1.6.16",
        "version" : "2.0"
    },
    "scene" : 0,
    "scenes" : [
        {
            "name" : "Scene",
            "nodes" : [
                0
            ]
        }
    ],
    "nodes" : [
        {
            "mesh" : 0,
            "name" : "Grid",
            "scale" : [
                23.42912483215332,
                23.42912483215332,
                23.42912483215332
            ]
        }
    ],
    "meshes" : [
        {
            "name" : "Grid",
            "primitives" : [
                {
                    "attributes" : {
                        "POSITION" : 0,
                        "NORMAL" : 1,
                        "TEXCOORD_0" : 2
                    },
                    "indices" : 3
                }
            ]
        }
    ],
    "accessors" : [
        {
            "bufferView" : 0,
            "componentType" : 5126,
            "count" : 10705,
            "max" : [
                1,
                0,
                1
            ],
            "min" : [
                -1,
                0,
                -1
            ],
            "type" : "VEC3"
        },
        {
            "bufferView" : 1,
            "componentType" : 5126,
            "count" : 10705,
            "type" : "VEC3"
        },
        {
            "bufferView" : 2,
            "componentType" : 5126,
            "count" : 10705,
            "type" : "VEC2"
        },
        {
            "bufferView" : 3,
            "componentType" : 5123,
            "count" : 38400,
            "type" : "SCALAR"
        }
    ],
    "bufferViews" : [
        {
            "buffer" : 0,
            "byteLength" : 128460,
            "byteOffset" : 0
        },
        {
            "buffer" : 0,
            "byteLength" : 128460,
            "byteOffset" : 128460
        },
        {
            "buffer" : 0,
            "byteLength" : 85640,
            "byteOffset" : 256920
        },
        {
            "buffer" : 0,
            "byteLength" : 76800,
            "byteOffset" : 342560
        }
    ],
    "buffers" : [
        {
            "byteLength" : 419360,
            "uri" : "data:application/octet-stream;base64,"
        }
    ]
}
